# xmcd
#
# Track frame offsets:
#	150
#	12363
#	25622
#	37105
#	49212
#	60302
#	72333
#	83173
#	95855
#	109128
#	119351
#	131888
#	143831
#	156025
#	169735
#	181928
#	195321
#	207869
#	220589
#	236651
#	249873
#	262985
#
# Disc length: 3699
#
# Revision: 1
# Processed by: cddbd v1.5.1PL0 Copyright (c) Steve Scherf et al.
# Submitted via: CDex 1.50
# Normalized: r0:DSETVAR1
#
DISCID=300e7116
DTITLE=Various Artist - STARS of The Grand Ole Opry  - CD 1
DYEAR=2000
DGENRE=Country
TTITLE0=Jim Reeves - Mexican Joe
TTITLE1=Hank Williams and The Drifting Cowboys - Jambalaya
TTITLE2=The Carlisles - No Help Wanted
TTITLE3=Kitty Wells - Hey Joe
TTITLE4=Webb Pierce - There Stands The Glass
TTITLE5=Carl Smith - Are You Teasing Me
TTITLE6=Jim and Jesse - Are You Lost In Sin
TTITLE7=Pee Wee King - Silver And Gold
TTITLE8=Webb Pierce - That Heart Belongs To Me
TTITLE9=Hank Snow and Anita Carter - Down The Trail OfAchin' Hearts
TTITLE10=Marty Robbins - Tomorrow You'll Be Gone
TTITLE11=Hank Williams and The Drifting Cowboys - A Mansion On The Hill
TTITLE12=Cowboy Copas - Signed Sealed and Delivered
TTITLE13=Eddy Arnold (and His Tennessee Plowboys) - What A Fool I Was
TTITLE14=Bill Monroe and His Bluegrass Boys - Footprints In The Snow
TTITLE15=Tex Ritter - When You Leave Don't Slam The Door
TTITLE16=Bob Wills and His Texas Payboys - You're From Texas
TTITLE17=Ernest Tubb - Careless Darlin'
TTITLE18=Red Foley with The Lawrence Welk Orchestra - At Mail Call Today
TTITLE19=Roy Acuff - A Great Speckle Bird
TTITLE20=Carter Family - Bury Me  Beneath The Willow
TTITLE21=Uncle Dave Macon - Backwater Blues
EXTD=YEAR: 2000
EXTT0=
EXTT1=
EXTT2=
EXTT3=
EXTT4=
EXTT5=
EXTT6=
EXTT7=
EXTT8=
EXTT9=
EXTT10=
EXTT11=
EXTT12=
EXTT13=
EXTT14=
EXTT15=
EXTT16=
EXTT17=
EXTT18=
EXTT19=
EXTT20=
EXTT21=
PLAYORDER=
